<svg xmlns="http://www.w3.org/2000/svg" xmlns:xlink="http://www.w3.org/1999/xlink" width="500" zoomAndPan="magnify" viewBox="0 0 375 374.999991" height="500" preserveAspectRatio="xMidYMid meet" version="1.0"><defs><clipPath id="21a9633f9a"><path d="M 9.015625 30.433594 L 366 30.433594 L 366 344.683594 L 9.015625 344.683594 Z M 9.015625 30.433594 " clip-rule="nonzero"/></clipPath><clipPath id="b68c127035"><path d="M 112.5 187.5 L 262.5 187.5 L 262.5 337.5 L 112.5 337.5 Z M 112.5 187.5 " clip-rule="nonzero"/></clipPath></defs><rect x="-37.5" width="450" fill="#ffffff" y="-37.499999" height="449.999989" fill-opacity="1"/><rect x="-37.5" width="450" fill="#ffffff" y="-37.499999" height="449.999989" fill-opacity="1"/><g clip-path="url(#21a9633f9a)"><path fill="#fefae0" d="M 187.101562 30.820312 C 185.601562 30.996094 184.203125 31.675781 183.136719 32.753906 L 11.660156 204.234375 C 9.066406 206.851562 9.089844 211.074219 11.710938 213.664062 C 12.953125 214.894531 14.628906 215.585938 16.375 215.59375 L 52.601562 215.59375 L 52.601562 337.558594 C 52.609375 341.222656 55.578125 344.1875 59.246094 344.203125 L 316.46875 344.203125 C 320.132812 344.1875 323.097656 341.222656 323.113281 337.558594 L 323.113281 215.597656 L 359.335938 215.597656 C 363.019531 215.582031 365.996094 212.585938 365.980469 208.902344 C 365.972656 207.152344 365.28125 205.476562 364.054688 204.234375 L 322.253906 162.4375 L 322.253906 105.203125 C 322.242188 101.542969 319.273438 98.574219 315.609375 98.558594 L 287.316406 98.558594 C 283.65625 98.574219 280.6875 101.542969 280.671875 105.203125 L 280.671875 120.851562 L 192.570312 32.753906 C 191.140625 31.308594 189.125 30.597656 187.101562 30.820312 Z M 187.101562 30.820312 " fill-opacity="1" fill-rule="nonzero"/></g><g clip-path="url(#b68c127035)"><path fill="#dbb081" d="M 187.523438 187.476562 C 228.949219 187.476562 262.523438 221.054688 262.523438 262.476562 C 262.523438 294.085938 242.964844 321.128906 215.285156 332.167969 L 214.191406 308.535156 L 214.191406 308.488281 C 214.25 303.8125 216.222656 300.132812 220.601562 298.28125 L 221.164062 298.054688 L 221.195312 298.042969 L 221.230469 298.027344 L 221.285156 298.007812 C 224.511719 296.703125 227.136719 294.945312 228.925781 291.902344 C 231.160156 288.109375 231.589844 283.058594 231.589844 278.761719 C 231.589844 270.496094 229.15625 260.738281 224.957031 253.589844 C 221.972656 248.515625 217.269531 243.378906 210.917969 243.378906 C 204.5625 243.378906 199.859375 248.515625 196.875 253.589844 C 192.675781 260.738281 190.242188 270.496094 190.242188 278.761719 C 190.242188 283.0625 190.671875 288.117188 192.910156 291.902344 C 194.714844 294.964844 197.371094 296.726562 200.613281 298.035156 C 200.703125 298.070312 200.792969 298.109375 200.882812 298.144531 L 200.90625 298.144531 L 201.1875 298.265625 C 205.582031 300.113281 207.582031 303.753906 207.640625 308.488281 L 207.640625 308.535156 L 206.410156 335.078125 C 200.375 336.644531 194.046875 337.480469 187.523438 337.480469 C 180.769531 337.480469 174.226562 336.582031 168 334.910156 L 166.851562 310.054688 L 166.851562 310 C 166.910156 305.210938 168.953125 301.433594 173.4375 299.535156 L 174.011719 299.308594 L 174.03125 299.304688 L 174.050781 299.292969 L 174.117188 299.269531 C 177.28125 297.988281 179.863281 296.265625 181.621094 293.277344 C 183.824219 289.539062 184.246094 284.519531 184.246094 280.277344 C 184.246094 279.867188 184.230469 279.453125 184.207031 279.042969 C 184.191406 278.804688 184.171875 278.570312 184.140625 278.339844 L 184.101562 277.992188 L 184.164062 277.757812 L 181.4375 246.035156 L 178.585938 246.039062 L 178.339844 279.5625 L 173.589844 280.035156 L 170.765625 242.140625 L 167.675781 242.328125 L 167.0625 280.503906 L 165.378906 280.574219 C 165.027344 280.589844 164.675781 280.59375 164.328125 280.59375 C 163.976562 280.59375 163.621094 280.589844 163.269531 280.574219 L 161.597656 280.503906 L 160.738281 242.328125 L 157.644531 242.148438 L 155.070312 280.042969 L 150.3125 279.570312 L 150.074219 246.039062 L 147.207031 246.039062 L 143.519531 277.769531 L 143.578125 277.996094 L 143.539062 278.332031 C 143.515625 278.570312 143.496094 278.804688 143.480469 279.042969 C 143.453125 279.453125 143.4375 279.867188 143.4375 280.277344 C 143.4375 284.519531 143.859375 289.539062 146.066406 293.277344 C 147.839844 296.292969 150.449219 298.015625 153.632812 299.292969 C 153.707031 299.324219 153.785156 299.355469 153.855469 299.386719 L 153.878906 299.386719 L 154.210938 299.527344 C 158.707031 301.417969 160.769531 305.15625 160.835938 310 L 160.835938 310.054688 L 159.808594 332.203125 C 132.09375 321.183594 112.503906 294.121094 112.503906 262.480469 C 112.523438 221.050781 146.101562 187.476562 187.523438 187.476562 " fill-opacity="1" fill-rule="evenodd"/></g></svg>