<svg xmlns="http://www.w3.org/2000/svg" xmlns:xlink="http://www.w3.org/1999/xlink" width="500" zoomAndPan="magnify" viewBox="0 0 375 374.999991" height="500" preserveAspectRatio="xMidYMid meet" version="1.0"><defs><clipPath id="7f53d21c30"><path d="M 9.015625 30.433594 L 366 30.433594 L 366 344.683594 L 9.015625 344.683594 Z M 9.015625 30.433594 " clip-rule="nonzero"/></clipPath><clipPath id="69d5957976"><path d="M 83.390625 125.390625 L 291.890625 125.390625 L 291.890625 333.890625 L 83.390625 333.890625 Z M 83.390625 125.390625 " clip-rule="nonzero"/></clipPath></defs><g clip-path="url(#7f53d21c30)"><path fill="#fefae0" d="M 187.101562 30.820312 C 185.601562 30.996094 184.203125 31.675781 183.136719 32.753906 L 11.660156 204.234375 C 9.066406 206.851562 9.089844 211.074219 11.710938 213.664062 C 12.953125 214.894531 14.628906 215.585938 16.375 215.59375 L 52.601562 215.59375 L 52.601562 337.558594 C 52.609375 341.222656 55.578125 344.1875 59.246094 344.203125 L 316.46875 344.203125 C 320.132812 344.1875 323.097656 341.222656 323.113281 337.558594 L 323.113281 215.597656 L 359.335938 215.597656 C 363.019531 215.582031 365.996094 212.585938 365.980469 208.902344 C 365.972656 207.152344 365.28125 205.476562 364.054688 204.234375 L 322.253906 162.4375 L 322.253906 105.203125 C 322.242188 101.542969 319.273438 98.574219 315.609375 98.558594 L 287.316406 98.558594 C 283.65625 98.574219 280.6875 101.542969 280.671875 105.203125 L 280.671875 120.851562 L 192.570312 32.753906 C 191.140625 31.308594 189.125 30.597656 187.101562 30.820312 Z M 187.101562 30.820312 " fill-opacity="1" fill-rule="nonzero"/></g><g clip-path="url(#69d5957976)"><path fill="#dbb081" d="M 187.53125 125.355469 C 245.027344 125.355469 291.632812 171.964844 291.632812 229.457031 C 291.632812 273.335938 264.484375 310.871094 226.0625 326.195312 L 224.542969 293.390625 L 224.542969 293.328125 C 224.625 286.839844 227.367188 281.730469 233.445312 279.15625 L 234.265625 278.828125 L 234.316406 278.808594 L 234.390625 278.78125 C 238.867188 276.96875 242.511719 274.527344 244.996094 270.304688 C 248.097656 265.042969 248.695312 258.03125 248.695312 252.0625 C 248.695312 240.589844 245.316406 227.046875 239.488281 217.128906 C 235.347656 210.082031 228.816406 202.949219 220 202.949219 C 211.179688 202.949219 204.648438 210.082031 200.507812 217.128906 C 194.683594 227.046875 191.300781 240.589844 191.300781 252.0625 C 191.300781 258.035156 191.902344 265.050781 195.003906 270.304688 C 197.511719 274.558594 201.199219 277.003906 205.695312 278.816406 C 205.820312 278.863281 205.945312 278.921875 206.070312 278.96875 L 206.105469 278.96875 L 206.496094 279.136719 C 212.597656 281.703125 215.371094 286.753906 215.453125 293.328125 L 215.453125 293.390625 L 213.746094 330.238281 C 205.367188 332.410156 196.585938 333.570312 187.53125 333.570312 C 178.15625 333.570312 169.074219 332.320312 160.429688 330 L 158.832031 295.503906 L 158.832031 295.425781 C 158.917969 288.777344 161.753906 283.535156 167.976562 280.898438 L 168.773438 280.585938 L 168.800781 280.578125 L 168.828125 280.566406 L 168.917969 280.53125 C 173.308594 278.753906 176.894531 276.363281 179.332031 272.214844 C 182.394531 267.023438 182.976562 260.058594 182.976562 254.167969 C 182.976562 253.597656 182.957031 253.023438 182.921875 252.453125 C 182.902344 252.125 182.875 251.796875 182.832031 251.476562 L 182.777344 250.996094 L 182.867188 250.667969 L 179.082031 206.636719 L 175.121094 206.644531 L 174.78125 253.179688 L 168.1875 253.832031 L 164.269531 201.234375 L 159.976562 201.492188 L 159.125 254.480469 L 156.789062 254.578125 C 156.300781 254.601562 155.816406 254.609375 155.332031 254.609375 C 154.84375 254.609375 154.351562 254.601562 153.863281 254.578125 L 151.542969 254.480469 L 150.351562 201.492188 L 146.054688 201.242188 L 142.480469 253.839844 L 135.878906 253.183594 L 135.542969 206.644531 L 131.5625 206.644531 L 126.449219 250.691406 L 126.53125 251.003906 L 126.476562 251.472656 C 126.441406 251.796875 126.414062 252.125 126.390625 252.453125 C 126.359375 253.023438 126.335938 253.597656 126.335938 254.167969 C 126.335938 260.058594 126.921875 267.023438 129.980469 272.214844 C 132.441406 276.398438 136.066406 278.789062 140.488281 280.566406 C 140.589844 280.605469 140.695312 280.648438 140.792969 280.691406 L 140.828125 280.691406 L 141.289062 280.886719 C 147.527344 283.515625 150.390625 288.699219 150.480469 295.425781 L 150.480469 295.503906 L 149.058594 326.242188 C 110.589844 310.949219 83.398438 273.386719 83.398438 229.464844 C 83.425781 171.957031 130.03125 125.355469 187.53125 125.355469 " fill-opacity="1" fill-rule="evenodd"/></g></svg>